<svg height="1966" width="720" xmlns="http://www.w3.org/2000/svg">
<rect height="1966" fill="#555" width="720"></rect>
<text fill="#7f7" font-family="Courier New" font-size="12" xml:space="preserve">
<tspan x="10" y="26"></tspan>
<tspan x="10" y="42">&gt; npmdoc-react-ui-builder@0.0.1 test /home/travis/build/npmdoc/node-npmdoc-react-ui-builder</tspan>
<tspan x="10" y="58">&gt; (set -e; export PORT=$(utility2 shServerPortRandom); utility2 test test.js)</tspan>
<tspan x="10" y="74"></tspan>
<tspan x="10" y="90"></tspan>
<tspan x="10" y="106">[MODE_BUILD=npmTest] - 2017-04-07T21:48:25Z - npm-testing /home/travis/build/npmdoc/node-npmdoc-\</tspan>
<tspan x="10" y="122">react-ui-builder</tspan>
<tspan x="10" y="138"></tspan>
<tspan x="10" y="154"></tspan>
<tspan x="10" y="170">covering $ /home/travis/.nvm/versions/node/v6.10.2/bin/node /home/travis/build/npmdoc/node-npmdo\</tspan>
<tspan x="10" y="186">c-react-ui-builder/test.js</tspan>
<tspan x="10" y="202">merging file:///home/travis/build/npmdoc/node-npmdoc-react-ui-builder/tmp/build/test-report.json\</tspan>
<tspan x="10" y="218"> to test-report</tspan>
<tspan x="10" y="234">&gt; server listening on http-port 63341</tspan>
<tspan x="10" y="250">created apidoc file:///home/travis/build/npmdoc/node-npmdoc-react-ui-builder/tmp/build/apidoc.ht\</tspan>
<tspan x="10" y="266">ml</tspan>
<tspan x="10" y="282"></tspan>
<tspan x="10" y="298"></tspan>
<tspan x="10" y="314">browserTest - created electron entry-page /home/travis/build/npmdoc/node-npmdoc-react-ui-builder\</tspan>
<tspan x="10" y="330">/tmp/electron.15b4a63d0290.f0dd295e4eb53.html</tspan>
<tspan x="10" y="346"></tspan>
<tspan x="10" y="362">Xlib:  extension "RANDR" missing on display ":99.0".</tspan>
<tspan x="10" y="378">[node test-case 1 of 6 passed] - testCase_buildLib_default</tspan>
<tspan x="10" y="394">[node test-case 2 of 6 passed] - testCase_buildReadme_default</tspan>
<tspan x="10" y="410">[node test-case 3 of 6 passed] - testCase_buildTest_default</tspan>
<tspan x="10" y="426"></tspan>
<tspan x="10" y="442">browserTest - created electron entry-page /home/travis/build/npmdoc/node-npmdoc-react-ui-builder\</tspan>
<tspan x="10" y="458">/tmp/electron.15b4a63d0a00.9a728660354b.html</tspan>
<tspan x="10" y="474"></tspan>
<tspan x="10" y="490">React UI Builder started successfully.</tspan>
<tspan x="10" y="506">Please go to http://localhost:2222/builder</tspan>
<tspan x="10" y="522">Xlib:  extension "RANDR" missing on display ":99.0".</tspan>
<tspan x="10" y="538">&gt; server listening on http-port 58255</tspan>
<tspan x="10" y="554">merging file:///home/travis/build/npmdoc/node-npmdoc-react-ui-builder/tmp/build/test-report.json\</tspan>
<tspan x="10" y="570"> to test-report</tspan>
<tspan x="10" y="586">Xlib:  extension "RANDR" missing on display ":99.0".</tspan>
<tspan x="10" y="602">[7829:0407/214827:WARNING:audio_manager.cc(314)] Multiple instances of AudioManager detected</tspan>
<tspan x="10" y="618">[7829:0407/214827:WARNING:audio_manager.cc(275)] Multiple instances of AudioManager detected</tspan>
<tspan x="10" y="634">merging file:///home/travis/build/npmdoc/node-npmdoc-react-ui-builder/tmp/build/test-report.json\</tspan>
<tspan x="10" y="650"> to test-report</tspan>
<tspan x="10" y="666">Xlib:  extension "RANDR" missing on display ":99.0".</tspan>
<tspan x="10" y="682">[7815:0407/214827:WARNING:audio_manager.cc(314)] Multiple instances of AudioManager detected</tspan>
<tspan x="10" y="698">[7815:0407/214827:WARNING:audio_manager.cc(275)] Multiple instances of AudioManager detected</tspan>
<tspan x="10" y="714">[7862:0407/214827:ERROR:sandbox_linux.cc(343)] InitializeSandbox() called with multiple threads \</tspan>
<tspan x="10" y="730">in process gpu-process. </tspan>
<tspan x="10" y="746">[7829:0407/214827:ERROR:browser_gpu_channel_host_factory.cc(131)] Failed to create channel.</tspan>
<tspan x="10" y="762">[7882:0407/214827:ERROR:sandbox_linux.cc(343)] InitializeSandbox() called with multiple threads \</tspan>
<tspan x="10" y="778">in process gpu-process. </tspan>
<tspan x="10" y="794">[7815:0407/214827:ERROR:browser_gpu_channel_host_factory.cc(131)] Failed to create channel.</tspan>
<tspan x="10" y="810"></tspan>
<tspan x="10" y="826">browserTest - opened url http://127.0.0.1:63341?modeTest=1</tspan>
<tspan x="10" y="842"></tspan>
<tspan x="10" y="858"></tspan>
<tspan x="10" y="874">browserTest - opened url /home/travis/build/npmdoc/node-npmdoc-react-ui-builder/tmp/build/apidoc\</tspan>
<tspan x="10" y="890">.html</tspan>
<tspan x="10" y="906"></tspan>
<tspan x="10" y="922">[7829:0407/214829:INFO:CONSOLE(249)] "----------|-----------|-----------|-----------|-----------\</tspan>
<tspan x="10" y="938">|</tspan>
<tspan x="10" y="954">File      |   % Stmts |% Branches |   % Funcs |   % Lines |</tspan>
<tspan x="10" y="970">----------|-----------|-----------|-----------|-----------|</tspan>
<tspan x="10" y="986">----------|-----------|-----------|-----------|-----------|</tspan>
<tspan x="10" y="1002">All files |       100 |       100 |       100 |       100 |</tspan>
<tspan x="10" y="1018">----------|-----------|-----------|-----------|-----------|</tspan>
<tspan x="10" y="1034">", source: file:///home/travis/build/npmdoc/node-npmdoc-react-ui-builder/tmp/electron.15b4a63d0a\</tspan>
<tspan x="10" y="1050">00.9a728660354b.html (249)</tspan>
<tspan x="10" y="1066">[7829:0407/214829:INFO:CONSOLE(249)] "created coverage file:///tmp/build/coverage.html/index.htm\</tspan>
<tspan x="10" y="1082">l", source: file:///home/travis/build/npmdoc/node-npmdoc-react-ui-builder/tmp/electron.15b4a63d0\</tspan>
<tspan x="10" y="1098">a00.9a728660354b.html (249)</tspan>
<tspan x="10" y="1114">[node test-case 4 of 6 passed] - testCase_buildApp_default</tspan>
<tspan x="10" y="1130"></tspan>
<tspan x="10" y="1146">browserTest - created screenCapture file:///home/travis/build/npmdoc/node-npmdoc-react-ui-builde\</tspan>
<tspan x="10" y="1162">r/tmp/build/screenCapture.%2F.png</tspan>
<tspan x="10" y="1178"></tspan>
<tspan x="10" y="1194">browserTest - created screenCapture file:///home/travis/build/npmdoc/node-npmdoc-react-ui-builde\</tspan>
<tspan x="10" y="1210">r/tmp/build/screenCapture.%2F.html</tspan>
<tspan x="10" y="1226"></tspan>
<tspan x="10" y="1242">browserTest - exit-code 0 - http://127.0.0.1:63341?modeTest=1</tspan>
<tspan x="10" y="1258"></tspan>
<tspan x="10" y="1274"></tspan>
<tspan x="10" y="1290">browserTest - merged coverage from /home/travis/build/npmdoc/node-npmdoc-react-ui-builder/tmp/co\</tspan>
<tspan x="10" y="1306">verage.%2F.json</tspan>
<tspan x="10" y="1322"></tspan>
<tspan x="10" y="1338"></tspan>
<tspan x="10" y="1354">browserTest - merging test-report from /home/travis/build/npmdoc/node-npmdoc-react-ui-builder/tm\</tspan>
<tspan x="10" y="1370">p/test-report.%2F.json</tspan>
<tspan x="10" y="1386"></tspan>
<tspan x="10" y="1402">[node test-case 5 of 6 passed] - testCase_webpage_default</tspan>
<tspan x="10" y="1418"></tspan>
<tspan x="10" y="1434">browserTest - exit-code 1 - /home/travis/build/npmdoc/node-npmdoc-react-ui-builder/tmp/build/api\</tspan>
<tspan x="10" y="1450">doc.html</tspan>
<tspan x="10" y="1466"></tspan>
<tspan x="10" y="1482">[node test-case 6 of 6 passed] - testCase_buildApidoc_default</tspan>
<tspan x="10" y="1498">-------------------------------------|-----------|-----------|-----------|-----------|</tspan>
<tspan x="10" y="1514">File                                 |   % Stmts |% Branches |   % Funcs |   % Lines |</tspan>
<tspan x="10" y="1530">-------------------------------------|-----------|-----------|-----------|-----------|</tspan>
<tspan x="10" y="1546">   node-npmdoc-react-ui-builder/     |       100 |       100 |       100 |       100 |</tspan>
<tspan x="10" y="1562">      example.js                     |       100 |       100 |       100 |       100 |</tspan>
<tspan x="10" y="1578">      lib.npmdoc_react_ui_builder.js |       100 |       100 |       100 |       100 |</tspan>
<tspan x="10" y="1594">      test.js                        |       100 |       100 |       100 |       100 |</tspan>
<tspan x="10" y="1610">-------------------------------------|-----------|-----------|-----------|-----------|</tspan>
<tspan x="10" y="1626">All files                            |       100 |       100 |       100 |       100 |</tspan>
<tspan x="10" y="1642">-------------------------------------|-----------|-----------|-----------|-----------|</tspan>
<tspan x="10" y="1658"></tspan>
<tspan x="10" y="1674">created coverage file:///home/travis/build/npmdoc/node-npmdoc-react-ui-builder/tmp/build/coverag\</tspan>
<tspan x="10" y="1690">e.html/index.html</tspan>
<tspan x="10" y="1706">merging file:///home/travis/build/npmdoc/node-npmdoc-react-ui-builder/tmp/build/test-report.json\</tspan>
<tspan x="10" y="1722"> to test-report</tspan>
<tspan x="10" y="1738"></tspan>
<tspan x="10" y="1754">-------------------------------------------------------</tspan>
<tspan x="10" y="1770">| test-report - buildNpmdoc - node - linux v6.10.2 - 2017-04-07T21:47:46.180Z</tspan>
<tspan x="10" y="1786">|   55681 ms            0 failed        6 passed      |</tspan>
<tspan x="10" y="1802">-------------------------------------------------------</tspan>
<tspan x="10" y="1818"></tspan>
<tspan x="10" y="1834">created test-report file:///home/travis/build/npmdoc/node-npmdoc-react-ui-builder/tmp/build/test\</tspan>
<tspan x="10" y="1850">-report.html</tspan>
<tspan x="10" y="1866"></tspan>
<tspan x="10" y="1882"></tspan>
<tspan x="10" y="1898">npmTest - 0 failed tests</tspan>
<tspan x="10" y="1914"></tspan>
<tspan x="10" y="1930"></tspan>
<tspan x="10" y="1946">[MODE_BUILD=npmTest] - 2017-04-07T21:48:44Z - EXIT_CODE - 0</tspan>
</text>
</svg>
